<?xml version="1.0" standalone="no"?>
<!DOCTYPE svg PUBLIC "-//W3C//DTD SVG 20010904//EN"
 "http://www.w3.org/TR/2001/REC-SVG-20010904/DTD/svg10.dtd">
<svg version="1.0" xmlns="http://www.w3.org/2000/svg"
 width="198.000000pt" height="198.000000pt" viewBox="0 0 198.000000 198.000000"
 preserveAspectRatio="xMidYMid meet">

<g transform="translate(0.000000,198.000000) scale(0.100000,-0.100000)"
fill="#000000" stroke="none">
<path d="M1194 1149 c-19 -21 -19 -21 5 -40 17 -14 28 -16 41 -9 20 11 21 45
1 45 -6 0 -15 6 -20 13 -6 9 -12 7 -27 -9z m41 -31 c6 -5 0 -7 -12 -5 -12 2
-26 7 -30 12 -5 4 -2 5 5 1 7 -4 12 -2 12 5 0 7 3 8 8 3 4 -5 12 -12 17 -16z"/>
<path d="M1351 1136 c-9 -10 -9 -16 -1 -21 8 -5 8 -11 1 -19 -6 -7 -7 -17 -3
-21 4 -5 0 -6 -9 -3 -9 4 -20 -2 -28 -13 -15 -25 -3 -49 14 -26 11 15 14 15
33 -4 12 -11 22 -15 22 -9 0 7 8 9 21 5 15 -5 19 -4 15 4 -4 6 -17 11 -28 11
-12 0 -18 3 -15 7 4 3 1 13 -6 21 -10 13 -9 14 2 7 10 -6 13 -4 9 6 -3 8 0 23
8 34 19 26 18 40 -2 21 -20 -21 -41 -21 -24 -1 7 8 10 15 7 15 -2 0 -10 -6
-16 -14z"/>
<path d="M1406 1134 c-9 -24 -7 -28 9 -14 17 14 20 30 6 30 -5 0 -12 -7 -15
-16z"/>
<path d="M1429 1124 c-18 -22 5 -44 25 -24 12 13 12 17 1 27 -10 10 -16 9 -26
-3z"/>
<path d="M405 1121 c-11 -5 -28 -18 -38 -29 -16 -17 -16 -20 -2 -25 8 -4 15
-12 15 -19 0 -9 -3 -9 -10 2 -13 21 -22 7 -27 -42 -3 -34 1 -48 19 -69 13 -14
29 -24 37 -21 8 3 11 0 7 -7 -5 -7 -1 -9 9 -4 12 4 13 8 5 13 -8 5 -6 9 6 14
16 6 16 8 -1 26 -11 13 -16 30 -13 50 3 17 0 34 -5 37 -6 4 -7 1 -2 -7 5 -9 4
-11 -3 -6 -19 11 -14 29 6 24 13 -4 18 1 20 16 1 14 -1 17 -7 8 -7 -11 -9 -11
-14 1 -4 11 0 15 13 12 11 -2 22 0 25 6 4 5 15 9 26 9 13 0 18 -4 13 -12 -4
-7 -3 -8 5 -4 6 4 8 12 5 18 -4 7 -2 8 4 4 7 -4 12 -14 12 -23 0 -9 6 -13 15
-10 8 4 17 1 21 -5 5 -7 2 -8 -6 -3 -9 5 -11 4 -6 -4 5 -8 12 -9 20 -2 8 7 17
6 26 -1 12 -8 11 -8 -5 -3 -15 5 -17 3 -8 -6 18 -18 33 -1 33 35 0 29 -3 34
-25 34 -21 0 -23 -3 -14 -14 7 -8 9 -17 5 -21 -3 -3 -6 -1 -6 6 0 7 -4 10 -9
6 -5 -3 -15 0 -23 7 -15 15 -94 20 -123 9z m-11 -36 c3 -8 1 -15 -4 -15 -6 0
-10 7 -10 15 0 8 2 15 4 15 2 0 6 -7 10 -15z m-7 -77 c2 -18 0 -20 -7 -8 -9
13 -11 13 -20 0 -6 -9 -10 -10 -10 -3 0 7 8 17 18 22 9 6 17 11 17 11 1 0 2
-10 2 -22z m29 -70 c-6 -4 -18 -8 -25 -8 -11 0 -12 3 -4 11 6 6 9 19 6 28 -5
12 -1 11 14 -4 14 -13 16 -22 9 -27z"/>
<path d="M1076 1123 c-3 -3 -6 -23 -6 -44 0 -28 5 -39 19 -44 15 -4 20 -17 23
-56 1 -28 0 -55 -3 -60 -3 -6 -7 14 -8 43 -1 28 -7 56 -14 60 -18 11 -23 -92
-5 -104 9 -6 6 -7 -9 -3 -17 5 -23 2 -23 -10 0 -11 7 -14 26 -11 15 3 29 8 32
10 3 3 11 1 18 -5 18 -15 29 9 12 29 -7 9 -13 36 -12 59 0 34 -4 44 -23 54
-13 7 -23 16 -23 21 0 5 11 1 24 -7 l24 -16 -1 44 c0 37 -4 43 -22 45 -12 1
-25 -1 -29 -5z m39 -13 c3 -6 -1 -7 -9 -4 -10 4 -16 1 -16 -7 0 -7 -3 -10 -6
-6 -7 7 4 27 16 27 5 0 12 -4 15 -10z m25 -201 c0 -6 -4 -7 -10 -4 -5 3 -10
11 -10 16 0 6 5 7 10 4 6 -3 10 -11 10 -16z"/>
<path d="M1320 1100 c0 -5 4 -10 9 -10 6 0 13 5 16 10 3 6 -1 10 -9 10 -9 0
-16 -4 -16 -10z"/>
<path d="M446 1084 c-5 -14 -4 -15 9 -4 17 14 19 20 6 20 -5 0 -12 -7 -15 -16z"/>
<path d="M918 1049 c-10 -5 -18 -7 -18 -4 0 4 -7 0 -14 -8 -16 -16 -18 -57 -3
-57 5 0 7 6 4 14 -3 8 4 22 15 33 14 11 18 13 13 3 -16 -26 -13 -51 4 -45 12
4 12 2 -2 -9 -14 -11 -15 -15 -4 -19 7 -3 19 4 25 14 10 16 10 21 -3 25 -18 7
-20 34 -2 35 24 1 49 8 55 14 4 3 -8 3 -27 0 -21 -4 -30 -2 -26 5 8 12 5 12
-17 -1z"/>
<path d="M667 1043 c-11 -10 -8 -33 3 -33 6 0 10 8 11 18 0 10 3 12 6 5 2 -7
15 -13 28 -13 13 0 27 -5 30 -11 12 -18 12 -83 0 -94 -15 -15 -43 -14 -49 2
-4 9 -2 11 6 7 7 -4 8 -3 4 5 -10 15 13 43 28 34 6 -3 5 0 -2 8 -11 11 -16 9
-36 -15 -16 -20 -23 -24 -23 -13 0 9 4 14 9 11 4 -3 8 0 8 5 0 12 -30 15 -31
4 0 -5 -2 -15 -4 -24 -6 -35 12 -44 90 -44 41 -1 75 3 75 8 0 4 6 5 13 1 9 -6
9 -5 0 7 -6 8 -14 34 -17 58 -3 26 -13 53 -25 64 -18 19 -23 19 -46 7 -19 -10
-28 -11 -37 -2 -13 13 -31 16 -41 5z m113 -43 c0 -5 -4 -10 -10 -10 -5 0 -10
5 -10 10 0 6 5 10 10 10 6 0 10 -4 10 -10z m20 -15 c-10 -12 -10 -15 1 -15 11
0 11 -2 -1 -10 -10 -6 -11 -10 -2 -10 6 0 12 -5 12 -10 0 -9 -13 -4 -49 17 -2
2 4 12 14 23 21 23 44 28 25 5z m-7 -68 c3 -8 -1 -14 -8 -14 -7 0 -11 6 -8 14
3 7 6 13 8 13 2 0 5 -6 8 -13z"/>
<path d="M993 1035 c-9 -10 -9 -16 -2 -20 14 -9 22 0 17 18 -2 13 -5 13 -15 2z"/>
<path d="M1197 1036 c-10 -8 -14 -16 -8 -17 13 -5 18 -88 6 -97 -23 -17 -10
-27 36 -27 33 -1 49 3 49 12 0 7 -6 10 -14 7 -10 -4 -13 8 -10 60 2 37 -1 66
-5 66 -5 0 -15 2 -23 5 -7 2 -21 -2 -31 -9z m30 -122 c-3 -3 -12 -4 -19 -1 -8
3 -5 6 6 6 11 1 17 -2 13 -5z"/>
<path d="M1430 1035 c0 -22 28 -39 44 -26 8 6 18 11 22 10 21 -4 34 2 34 14 0
10 -15 14 -50 14 -34 1 -50 -3 -50 -12z m75 -5 c3 -6 -1 -7 -9 -4 -18 7 -21
14 -7 14 6 0 13 -4 16 -10z"/>
<path d="M1560 1036 c0 -8 6 -16 14 -19 15 -6 15 -51 1 -65 -4 -4 -4 4 -1 18
l7 25 -19 -24 -19 -23 -22 28 c-12 16 -20 22 -16 14 4 -10 1 -9 -8 3 -13 15
-16 15 -27 2 -10 -12 -9 -15 6 -16 11 0 14 -3 8 -5 -14 -6 15 -74 32 -74 7 0
14 -7 17 -14 4 -10 1 -13 -9 -9 -7 3 -14 0 -14 -6 0 -6 -8 -11 -18 -11 -12 0
-18 -8 -20 -25 -1 -14 3 -25 9 -25 5 0 7 5 3 11 -4 7 0 9 12 5 14 -4 25 4 44
32 13 20 23 43 21 51 -1 8 2 10 11 6 10 -6 10 -5 1 5 -10 11 -15 11 -28 0 -8
-7 -15 -8 -15 -2 0 13 26 23 44 16 9 -3 19 8 29 33 8 22 22 45 31 52 21 18 11
31 -22 30 -24 0 -25 -1 -7 -9 16 -7 17 -9 3 -9 -9 -1 -20 4 -23 9 -9 15 -25
12 -25 -4z m-38 -84 c-7 -2 -10 -8 -6 -13 3 -5 1 -9 -5 -9 -5 0 -9 9 -8 19 1
12 6 17 16 13 10 -4 11 -7 3 -10z"/>
<path d="M1324 1005 c-3 -14 -4 -31 -1 -39 3 -8 -1 -22 -8 -33 -24 -31 -17
-38 35 -38 39 -1 50 3 50 15 0 12 -2 12 -9 2 -6 -10 -10 -8 -14 8 -4 15 -11
21 -21 17 -9 -4 -16 -2 -16 3 0 6 10 10 23 10 18 0 19 2 7 10 -13 9 -13 10 0
10 9 1 6 5 -7 10 -13 5 -23 15 -23 22 0 10 2 10 9 -1 5 -7 13 -12 19 -10 6 2
-1 12 -14 22 -23 17 -24 17 -30 -8z m11 -85 c3 -5 1 -10 -4 -10 -6 0 -11 5
-11 10 0 6 2 10 4 10 3 0 8 -4 11 -10z"/>
<path d="M540 975 c0 -8 5 -15 10 -15 6 0 10 -5 10 -11 0 -5 -6 -7 -12 -3 -9
5 -9 2 1 -9 9 -12 10 -17 2 -17 -6 0 -14 7 -18 16 -5 15 -7 15 -15 0 -5 -9
-14 -14 -19 -10 -5 3 -16 0 -24 -6 -12 -10 -15 -9 -15 3 0 11 -6 14 -15 10 -9
-3 -13 -8 -11 -11 3 -3 2 -10 -3 -16 -7 -8 3 -12 34 -13 30 -2 45 2 49 12 3 8
11 15 17 15 8 0 8 -4 -1 -15 -22 -27 7 -16 40 15 l32 30 -25 20 c-30 24 -37
25 -37 5z m-45 -65 c3 -5 1 -10 -4 -10 -6 0 -11 5 -11 10 0 6 2 10 4 10 3 0 8
-4 11 -10z"/>
<path d="M952 978 c-17 -17 -15 -29 3 -22 10 4 13 0 10 -15 -3 -15 0 -19 8
-15 9 5 9 4 0 -6 -8 -8 -24 -10 -50 -5 -48 9 -47 9 -51 -9 -2 -9 3 -16 12 -16
9 0 16 5 16 11 0 6 5 7 13 2 17 -11 86 -12 93 -2 10 17 13 49 3 49 -5 0 -8 6
-6 13 1 6 -4 11 -10 10 -7 -2 -13 2 -13 7 0 14 -13 13 -28 -2z m42 -11 c4 4 4
0 1 -9 -4 -9 -2 -19 4 -22 12 -8 3 -36 -12 -36 -8 0 -7 4 1 12 8 8 6 19 -11
42 -12 17 -14 25 -6 19 9 -7 19 -10 23 -6z"/>
</g>
</svg>
