<?xml version="1.0" standalone="no"?>
<!DOCTYPE svg PUBLIC "-//W3C//DTD SVG 20010904//EN"
 "http://www.w3.org/TR/2001/REC-SVG-20010904/DTD/svg10.dtd">
<svg version="1.0" xmlns="http://www.w3.org/2000/svg"
 width="1200.000000pt" height="1200.000000pt" viewBox="0 0 1200.000000 1200.000000"
 preserveAspectRatio="xMidYMid meet">

<g transform="translate(0.000000,1200.000000) scale(0.100000,-0.100000)"
fill="#0016f5" stroke="none">
<path d="M0 6000 l0 -6000 6000 0 6000 0 0 6000 0 6000 -6000 0 -6000 0 0
-6000z m2535 759 c72 -39 145 -78 163 -85 32 -14 32 -14 30 -82 -1 -37 1 -72
5 -79 4 -6 78 -50 164 -98 87 -48 165 -94 173 -101 12 -12 15 -47 17 -172 1
-86 2 -160 2 -163 1 -3 31 -21 69 -40 37 -18 69 -34 71 -36 2 -1 3 -82 2 -180
-1 -123 -6 -182 -14 -190 -19 -19 -300 -173 -316 -173 -7 0 -28 9 -46 20 l-33
20 -207 -115 c-114 -63 -210 -115 -214 -115 -3 0 -100 52 -215 115 l-209 115
-32 -20 c-18 -11 -39 -20 -48 -20 -14 0 -287 149 -314 172 -10 8 -13 56 -13
183 0 194 -5 180 87 231 29 16 53 36 54 44 0 8 1 81 2 162 2 116 5 150 17 162
8 8 87 54 175 102 88 48 162 89 163 90 2 1 5 34 6 73 0 38 4 72 7 76 8 7 312
175 319 175 3 0 64 -32 135 -71z m5165 -95 c54 -33 76 -109 46 -162 -42 -77
-170 -82 -220 -10 -18 26 -21 100 -5 129 28 53 123 75 179 43z m1138 -78 c28
-9 52 -23 52 -30 0 -7 -11 -39 -25 -71 l-26 -57 -37 8 c-20 5 -72 9 -115 9
-102 0 -117 -15 -117 -116 l0 -69 116 0 116 0 -6 -27 c-3 -16 -8 -49 -12 -75
l-6 -48 -104 0 -104 0 -2 -262 -3 -263 -105 0 -105 0 -3 263 -2 262 -75 0 -75
0 0 75 0 75 75 0 75 0 0 63 c0 142 55 227 174 269 63 23 232 19 314 -6z
m-2008 -390 c0 -382 1 -405 19 -427 15 -19 29 -24 68 -24 26 0 62 4 78 8 31 8
31 8 53 -61 12 -38 22 -71 22 -74 0 -4 -21 -15 -47 -25 -35 -13 -75 -18 -148
-18 -91 0 -104 2 -147 28 -59 35 -93 91 -107 177 -6 36 -11 201 -11 368 l0
302 -105 0 -105 0 0 75 0 75 215 0 215 0 0 -404z m-2465 338 c52 -13 96 -34
154 -73 12 -8 7 -20 -28 -65 -62 -79 -65 -82 -97 -57 -31 24 -114 51 -158 51
-40 -1 -105 -30 -133 -61 -47 -52 -66 -116 -71 -241 -7 -189 35 -289 140 -332
68 -29 140 -17 223 35 l49 31 37 -43 c62 -72 66 -85 38 -109 -85 -73 -191
-105 -319 -97 -121 7 -190 36 -266 112 -96 96 -136 204 -136 374 -1 150 30
247 110 347 95 120 286 173 457 128z m1635 -205 c63 -10 146 -42 183 -70 16
-13 15 -18 -19 -69 -20 -30 -40 -58 -44 -63 -3 -4 -32 4 -62 18 -68 31 -171
42 -208 23 -15 -8 -26 -24 -28 -40 -4 -36 20 -51 144 -89 124 -39 163 -59 202
-103 52 -59 57 -173 11 -241 -96 -142 -402 -168 -580 -50 -22 14 -39 29 -39
34 0 5 23 34 50 64 l50 55 62 -31 c54 -28 71 -32 144 -32 90 0 124 17 124 61
0 35 -43 61 -154 95 -173 53 -236 112 -236 222 0 58 11 86 52 133 68 77 196
108 348 83z m-830 -23 c25 -9 62 -33 83 -54 57 -55 67 -103 67 -312 0 -166 1
-179 21 -204 22 -27 22 -28 4 -89 -10 -34 -21 -66 -25 -70 -13 -15 -99 15
-139 50 l-41 34 -37 -30 c-111 -87 -305 -78 -386 18 -36 43 -50 94 -45 166 9
145 133 225 350 225 87 0 88 0 88 24 0 45 -19 77 -55 91 -44 19 -123 19 -200
0 -33 -8 -65 -14 -71 -15 -10 0 -54 103 -54 128 0 12 69 36 145 51 72 14 241
7 295 -13z m2590 -281 l0 -285 95 0 95 0 0 -75 0 -75 -302 2 -302 3 -1 73 -1
72 103 0 103 0 0 210 0 210 -100 0 -100 0 0 75 0 75 205 0 205 0 0 -285z
m1538 7 c35 -147 66 -276 69 -287 4 -12 31 78 69 225 35 135 69 264 75 288
l12 42 108 0 c60 0 109 -3 109 -6 0 -22 -239 -723 -265 -779 -35 -72 -85 -131
-145 -171 -40 -27 -137 -54 -191 -54 -36 0 -36 0 -48 57 -17 87 -16 90 32 97
64 10 125 44 152 84 32 47 31 52 -5 52 -22 0 -33 6 -40 23 -11 25 -220 682
-220 691 0 3 51 6 113 6 l112 0 63 -268z"/>
<path d="M2292 6690 l-104 -57 106 -57 105 -57 43 22 c24 12 71 37 106 56 l63
35 -106 59 c-58 33 -107 59 -108 58 -1 -1 -49 -27 -105 -59z"/>
<path d="M2150 6451 l0 -120 97 -53 c54 -29 101 -54 105 -56 5 -2 8 50 8 115
l0 118 -53 29 c-28 16 -76 42 -104 58 l-53 29 0 -120z"/>
<path d="M2543 6512 l-103 -56 0 -119 c0 -65 3 -117 8 -115 4 2 51 27 105 56
l97 54 0 119 c0 65 -1 119 -2 118 -2 0 -49 -26 -105 -57z"/>
<path d="M1927 6344 l-137 -76 0 -125 0 -125 44 26 c25 14 52 26 61 26 9 0 63
-26 119 -57 55 -31 126 -69 156 -84 l54 -28 -3 -178 c-2 -102 -7 -183 -13
-190 -6 -7 -41 -30 -79 -50 -38 -20 -66 -40 -61 -44 4 -4 80 -48 169 -98 l162
-89 78 42 c43 23 120 66 172 95 l94 54 -59 33 c-113 63 -104 41 -104 237 0 95
4 177 8 183 11 16 298 174 317 174 9 0 36 -12 61 -26 l44 -26 0 125 0 125
-137 76 c-76 41 -139 73 -141 71 -2 -2 -5 -29 -6 -60 -2 -32 -8 -61 -17 -69
-8 -8 -80 -51 -161 -96 l-148 -82 -147 83 c-82 45 -155 88 -164 96 -12 10 -16
29 -15 64 1 28 -1 55 -4 59 -3 5 -67 -25 -143 -66z"/>
<path d="M1792 5936 c-51 -30 -92 -58 -91 -62 1 -5 45 -32 98 -61 l96 -52 95
51 c52 28 99 54 103 58 8 7 -181 120 -199 120 -5 0 -51 -25 -102 -54z"/>
<path d="M2802 5937 c-52 -30 -93 -58 -92 -63 1 -5 45 -32 98 -61 l96 -52 95
51 c53 28 100 54 104 58 8 7 -181 120 -199 120 -5 0 -51 -24 -102 -53z"/>
<path d="M1649 5793 c-3 -47 -1 -214 2 -217 2 -2 49 -29 104 -59 l100 -56 3
116 c2 103 1 118 -15 127 -10 6 -57 33 -105 59 -74 40 -88 45 -89 30z"/>
<path d="M2033 5752 l-103 -56 0 -119 0 -119 88 48 c146 79 132 59 132 190 0
63 -3 114 -7 113 -5 0 -54 -26 -110 -57z"/>
<path d="M2650 5696 c0 -131 -14 -111 133 -190 l87 -48 0 119 0 118 -104 58
c-58 31 -107 57 -110 57 -3 0 -6 -51 -6 -114z"/>
<path d="M3043 5753 l-103 -56 0 -120 0 -119 68 38 c37 21 84 47 104 59 21 11
38 27 39 35 4 62 3 193 -1 205 -4 10 -31 -1 -107 -42z"/>
<path d="M4965 5905 c-51 -18 -75 -48 -75 -92 0 -90 116 -114 198 -40 18 17
22 31 22 84 l0 63 -52 0 c-29 -1 -71 -7 -93 -15z"/>
</g>
</svg>
